<svg width="20" height="20" viewBox="0 0 20 20" fill="none" xmlns="http://www.w3.org/2000/svg">
<path d="M18.0893 3.08928C18.4148 2.76384 18.4148 2.2362 18.0893 1.91076C17.7639 1.58533 17.2363 1.58533 16.9108 1.91076L6.49416 12.3274C6.16872 12.6529 6.16872 13.1805 6.49416 13.5059C6.8196 13.8314 7.34723 13.8314 7.67267 13.5059L18.0893 3.08928Z" fill="#72767C"/>
<path d="M4.33934 16.8393C4.66477 16.5138 4.66477 15.9862 4.33934 15.6608C4.0139 15.3353 3.48626 15.3353 3.16083 15.6608L1.91083 16.9108C1.58539 17.2362 1.58539 17.7638 1.91083 18.0893C2.23626 18.4147 2.7639 18.4147 3.08934 18.0893L4.33934 16.8393Z" fill="#72767C"/>
<path fill-rule="evenodd" clip-rule="evenodd" d="M5.20549 16.1818C5.43652 16.4129 5.79454 16.5014 6.04841 16.2957C6.42556 15.9901 6.66666 15.5232 6.66666 15C6.66666 14.0795 5.92046 13.3334 4.99999 13.3334C4.47678 13.3334 4.00987 13.5744 3.70431 13.9516C3.49863 14.2055 3.58715 14.5635 3.81818 14.7945L5.20549 16.1818ZM6.01925 18.1746C5.3879 18.3772 4.7366 18.07 4.26776 17.6011L2.39889 15.7323C1.93005 15.2634 1.62283 14.6121 1.82537 13.9808C2.25603 12.6383 3.51454 11.6667 4.99999 11.6667C6.84094 11.6667 8.33332 13.1591 8.33332 15C8.33332 16.4855 7.36166 17.744 6.01925 18.1746Z" fill="#72767C"/>
<path d="M1.91066 3.08928C1.58522 2.76384 1.58522 2.2362 1.91066 1.91076C2.2361 1.58533 2.76374 1.58533 3.08917 1.91076L13.5058 12.3274C13.8313 12.6529 13.8313 13.1805 13.5058 13.5059C13.1804 13.8314 12.6528 13.8314 12.3273 13.5059L1.91066 3.08928Z" fill="#72767C"/>
<path d="M15.6607 16.8393C15.3352 16.5138 15.3352 15.9862 15.6607 15.6608C15.9861 15.3353 16.5137 15.3353 16.8392 15.6608L18.0892 16.9108C18.4146 17.2362 18.4146 17.7638 18.0892 18.0893C17.7637 18.4147 17.2361 18.4147 16.9107 18.0893L15.6607 16.8393Z" fill="#72767C"/>
<path fill-rule="evenodd" clip-rule="evenodd" d="M14.7945 16.1818C14.5635 16.4129 14.2055 16.5014 13.9516 16.2957C13.5744 15.9901 13.3333 15.5232 13.3333 15C13.3333 14.0795 14.0795 13.3334 15 13.3334C15.5232 13.3334 15.9901 13.5744 16.2957 13.9516C16.5014 14.2055 16.4129 14.5635 16.1818 14.7945L14.7945 16.1818ZM13.9808 18.1746C14.6121 18.3772 15.2634 18.07 15.7322 17.6011L17.6011 15.7323C18.07 15.2634 18.3772 14.6121 18.1746 13.9808C17.744 12.6383 16.4855 11.6667 15 11.6667C13.1591 11.6667 11.6667 13.1591 11.6667 15C11.6667 16.4855 12.6383 17.744 13.9808 18.1746Z" fill="#72767C"/>
</svg>
