<svg width="20" height="20" viewBox="0 0 20 20" fill="none" xmlns="http://www.w3.org/2000/svg">
<path fill-rule="evenodd" clip-rule="evenodd" d="M16.6246 5.90864C16.6333 5.25772 16.3893 4.60407 15.8926 4.1074C15.396 3.61074 14.7423 3.36673 14.0914 3.37539C14.0912 3.3754 14.0917 3.37539 14.0914 3.37539C13.7316 3.38029 13.372 3.46237 13.0409 3.62164C12.9222 3.67871 12.8072 3.7457 12.6969 3.8226C12.6544 3.85222 12.5998 3.85898 12.552 3.83915C12.5042 3.81933 12.4703 3.7759 12.4612 3.72497C12.4376 3.59262 12.4036 3.46388 12.3601 3.33962C12.2386 2.99289 12.0428 2.68106 11.7919 2.42321C11.7917 2.42303 11.792 2.42339 11.7919 2.42321C11.3377 1.95682 10.7025 1.66663 10.0001 1.66663C9.29769 1.66663 8.66295 1.95629 8.20881 2.42268C8.20864 2.42286 8.20898 2.42251 8.20881 2.42268C7.95788 2.68053 7.76161 2.99288 7.64011 3.33961C7.59657 3.46388 7.56256 3.59262 7.53897 3.72497C7.52989 3.7759 7.49599 3.81933 7.4482 3.83915C7.40038 3.85898 7.34573 3.85222 7.30326 3.8226C7.193 3.7457 7.07792 3.67871 6.95927 3.62164C6.62818 3.46237 6.26926 3.3803 5.90949 3.3754C5.90925 3.3754 5.90974 3.37541 5.90949 3.3754C5.25858 3.36674 4.60419 3.61074 4.10752 4.1074C3.61086 4.60407 3.36686 5.25772 3.37552 5.90864C3.37551 5.90839 3.37552 5.90888 3.37552 5.90864C3.38041 6.2684 3.46249 6.62805 3.62176 6.95914C3.67883 7.07779 3.74582 7.19287 3.82272 7.30314C3.85234 7.3456 3.8591 7.40026 3.83927 7.44808C3.81945 7.49587 3.77602 7.52977 3.72509 7.53885C3.59274 7.56244 3.46399 7.59645 3.33973 7.64C2.993 7.76149 2.68118 7.95724 2.42333 8.20817C2.42316 8.20835 2.42351 8.208 2.42333 8.20817C1.95694 8.66232 1.66675 9.29757 1.66675 9.99996C1.66675 10.7024 1.95641 11.3371 2.42281 11.7912C2.42263 11.7911 2.42298 11.7914 2.42281 11.7912C2.68065 12.0422 2.993 12.2384 3.33972 12.3599C3.46399 12.4035 3.59274 12.4375 3.72509 12.4611C3.77602 12.4701 3.81945 12.5041 3.83927 12.5518C3.8591 12.5997 3.85234 12.6543 3.82273 12.6968C3.74582 12.807 3.67883 12.9221 3.62175 13.0408C3.46249 13.3719 3.38042 13.7308 3.37553 14.0905C3.37552 14.0908 3.37553 14.0903 3.37553 14.0905C3.36687 14.7415 3.61086 15.3958 4.10752 15.8925C4.60419 16.3892 5.25784 16.6332 5.90876 16.6245C5.90851 16.6245 5.909 16.6245 5.90876 16.6245C6.26852 16.6196 6.62816 16.5375 6.95924 16.3783C7.0779 16.3212 7.19299 16.2542 7.30326 16.1773C7.34572 16.1477 7.40038 16.1409 7.4482 16.1608C7.49599 16.1806 7.5299 16.224 7.53897 16.275C7.56257 16.4073 7.59658 16.5361 7.64012 16.6603C7.76162 17.007 7.95737 17.3189 8.2083 17.5767C8.20812 17.5765 8.20847 17.5769 8.2083 17.5767C8.66244 18.0431 9.29769 18.3333 10.0001 18.3333C10.7025 18.3333 11.3372 18.0436 11.7914 17.5772C11.7912 17.5774 11.7915 17.5771 11.7914 17.5772C12.0423 17.3194 12.2385 17.007 12.36 16.6603C12.4036 16.5361 12.4376 16.4073 12.4612 16.275C12.4703 16.224 12.5042 16.1806 12.552 16.1608C12.5998 16.1409 12.6544 16.1477 12.6969 16.1773C12.8072 16.2542 12.9223 16.3212 13.0409 16.3783C13.372 16.5375 13.7309 16.6196 14.0907 16.6245C14.0904 16.6245 14.0909 16.6245 14.0907 16.6245C14.7416 16.6332 15.396 16.3892 15.8926 15.8925C16.3893 15.3958 16.6333 14.7422 16.6246 14.0913C16.6246 14.091 16.6247 14.0915 16.6246 14.0913C16.6198 13.7315 16.5377 13.3719 16.3784 13.0408C16.3213 12.9221 16.2543 12.8071 16.1774 12.6968C16.1478 12.6543 16.1411 12.5997 16.1609 12.5518C16.1807 12.5041 16.2241 12.4701 16.2751 12.4611C16.4074 12.4375 16.5362 12.4035 16.6604 12.3599C17.0072 12.2384 17.319 12.0427 17.5768 11.7917C17.5767 11.7919 17.577 11.7916 17.5768 11.7917C18.0432 11.3376 18.3334 10.7024 18.3334 9.99996C18.3334 9.29757 18.0437 8.66283 17.5774 8.20869C17.5772 8.20852 17.5775 8.20886 17.5774 8.20869C17.3195 7.95776 17.0072 7.76149 16.6604 7.64C16.5362 7.59645 16.4074 7.56244 16.2751 7.53885C16.2241 7.52977 16.1807 7.49587 16.1609 7.44808C16.1411 7.40026 16.1478 7.3456 16.1774 7.30314C16.2543 7.19287 16.3213 7.07778 16.3784 6.95913C16.5377 6.62804 16.6198 6.2684 16.6246 5.90864C16.6247 5.90839 16.6246 5.90888 16.6246 5.90864ZM14.7141 5.28591C14.4254 4.99723 13.9743 4.96366 13.6503 5.18964C13.1587 5.5325 12.5059 5.62431 11.9135 5.3787C11.3228 5.13372 10.9257 4.60816 10.8204 4.01745C10.7511 3.62854 10.4083 3.33329 10.0001 3.33329C9.59182 3.33329 9.2491 3.62854 9.17977 4.01745C9.07448 4.60816 8.67739 5.13371 8.08662 5.37869C7.49431 5.62431 6.84145 5.53249 6.34985 5.18964C6.02583 4.96366 5.57472 4.99723 5.28604 5.28591C4.99735 5.57459 4.96378 6.02571 5.18976 6.34973C5.53262 6.84133 5.62443 7.49419 5.37882 8.08649C5.13384 8.67727 4.60828 9.07436 4.01757 9.17965C3.62866 9.24898 3.33341 9.5917 3.33341 9.99996C3.33341 10.4082 3.62866 10.7509 4.01757 10.8203C4.60828 10.9256 5.13384 11.3227 5.37882 11.9134C5.62443 12.5057 5.53262 13.1586 5.18976 13.6502C4.96378 13.9742 4.99735 14.4253 5.28604 14.714C5.57472 15.0027 6.02583 15.0363 6.34985 14.8103C6.84144 14.4674 7.4943 14.3756 8.08661 14.6212C8.67738 14.8662 9.07448 15.3918 9.17978 15.9825C9.2491 16.3714 9.59182 16.6666 10.0001 16.6666C10.4083 16.6666 10.7511 16.3714 10.8204 15.9825C10.9257 15.3918 11.3228 14.8662 11.9135 14.6212C12.5059 14.3756 13.1587 14.4674 13.6503 14.8103C13.9743 15.0363 14.4254 15.0027 14.7141 14.714C15.0028 14.4253 15.0364 13.9742 14.8104 13.6502C14.4675 13.1586 14.3757 12.5057 14.6213 11.9134C14.8663 11.3227 15.3919 10.9256 15.9826 10.8203C16.3715 10.7509 16.6667 10.4082 16.6667 9.99996C16.6667 9.5917 16.3715 9.24898 15.9826 9.17965C15.3919 9.07436 14.8663 8.67727 14.6213 8.08649C14.3757 7.49419 14.4676 6.84132 14.8104 6.34972C15.0364 6.02571 15.0028 5.5746 14.7141 5.28591Z" fill="#72767C"/>
<path fill-rule="evenodd" clip-rule="evenodd" d="M10.0001 11.6666C10.9206 11.6666 11.6667 10.9204 11.6667 9.99996C11.6667 9.07948 10.9206 8.33329 10.0001 8.33329C9.07961 8.33329 8.33341 9.07948 8.33341 9.99996C8.33341 10.9204 9.07961 11.6666 10.0001 11.6666ZM10.0001 13.3333C11.841 13.3333 13.3334 11.8409 13.3334 9.99996C13.3334 8.15901 11.841 6.66663 10.0001 6.66663C8.15913 6.66663 6.66675 8.15901 6.66675 9.99996C6.66675 11.8409 8.15913 13.3333 10.0001 13.3333Z" fill="#72767C"/>
</svg>
