<svg width="20" height="20" viewBox="0 0 20 20" fill="none" xmlns="http://www.w3.org/2000/svg">
<path fill-rule="evenodd" clip-rule="evenodd" d="M10.0001 18.3334C14.6025 18.3334 18.3334 14.6024 18.3334 10C18.3334 5.39765 14.6025 1.66669 10.0001 1.66669C5.39771 1.66669 1.66675 5.39765 1.66675 10C1.66675 14.6024 5.39771 18.3334 10.0001 18.3334ZM15.2666 14.0881C16.1442 12.9592 16.6667 11.5406 16.6667 10C16.6667 6.60034 14.122 3.79501 10.8334 3.38493V6.7717C12.2711 7.14174 13.3334 8.44682 13.3334 10C13.3334 10.6182 13.1651 11.1971 12.8719 11.6934L15.2666 14.0881ZM14.088 15.2666L11.6933 12.8719C11.1971 13.1651 10.6182 13.3334 10.0001 13.3334C9.38194 13.3334 8.8031 13.1651 8.30685 12.8719L5.91212 15.2666C7.04101 16.1441 8.45952 16.6667 10.0001 16.6667C11.5406 16.6667 12.9592 16.1441 14.088 15.2666ZM6.66675 10C6.66675 10.6182 6.83504 11.1971 7.12831 11.6934L4.73359 14.0881C3.856 12.9592 3.33341 11.5406 3.33341 10C3.33341 6.60034 5.87815 3.79501 9.16675 3.38493V6.7717C7.72906 7.14174 6.66675 8.44682 6.66675 10ZM10.0001 11.6667C10.9206 11.6667 11.6667 10.9205 11.6667 10C11.6667 9.07955 10.9206 8.33335 10.0001 8.33335C9.07961 8.33335 8.33341 9.07955 8.33341 10C8.33341 10.9205 9.07961 11.6667 10.0001 11.6667Z" fill="#72767C"/>
</svg>
